<?xml version="1.0" encoding="utf-8"?>
<!-- Generator: Adobe Illustrator 26.2.1, SVG Export Plug-In . SVG Version: 6.00 Build 0)  -->
<svg version="1.1" id="Layer_1" xmlns="http://www.w3.org/2000/svg" xmlns:xlink="http://www.w3.org/1999/xlink" x="0px" y="0px"
	 viewBox="0 0 225.7 173.6" style="enable-background:new 0 0 225.7 173.6;" xml:space="preserve">
<style type="text/css">
	.st0{fill:#68E1FD;}
	.st1{fill:#093F68;}
	.st2{fill:#FFFFFF;}
	.st3{fill:#F56132;}
	.st4{fill:#DFEAEF;}
	.st5{fill:#FFBC0E;}
</style>
<g id="_146_404_page_not_found_outline">
	<path class="st0" d="M198.4,29.3v102.8c0,5-4.2,9-9.2,9c0,0,0,0,0,0H36.5c-2.5,0-5-1-6.7-2.8c-1.6-1.6-2.5-3.8-2.5-6.1V29.3
		c0-5,4.2-9,9.2-9c0,0,0,0,0,0h152.7C194.2,20.3,198.4,24.3,198.4,29.3C198.4,29.3,198.4,29.3,198.4,29.3z"/>
	<path class="st1" d="M189.2,142.1H36.5c-2.8,0-5.5-1.1-7.4-3.1c-1.8-1.8-2.8-4.3-2.8-6.8V29.3c0.1-5.6,4.6-10.1,10.2-10
		c0,0,0,0,0,0h152.7c5.6-0.1,10.2,4.4,10.2,10c0,0,0,0,0,0v102.8C199.3,137.8,194.8,142.2,189.2,142.1z M36.5,21.4
		c-4.5-0.1-8.2,3.5-8.2,8c0,0,0,0,0,0v102.8c0,2,0.8,4,2.2,5.4c1.6,1.6,3.7,2.5,6,2.5h152.7c4.5,0.1,8.2-3.5,8.2-8c0,0,0,0,0,0V29.3
		c-0.1-4.5-3.7-8.1-8.2-8c0,0,0,0,0,0L36.5,21.4z"/>
	<polygon class="st0" points="144.5,172.6 81.2,172.6 87.9,141.2 137.8,141.2 	"/>
	<path class="st1" d="M144.5,173.6H81.2c-0.3,0-0.6-0.1-0.8-0.4c-0.2-0.2-0.3-0.5-0.2-0.8l6.7-31.5c0.1-0.5,0.5-0.8,1-0.8h49.9
		c0.5,0,0.9,0.3,1,0.8l6.7,31.5c0.1,0.3,0,0.6-0.2,0.8C145.1,173.5,144.8,173.6,144.5,173.6z M82.5,171.6h60.8l-6.3-29.5H88.7
		L82.5,171.6z"/>
	<circle class="st1" cx="112.9" cy="127.9" r="3.9"/>
	<path class="st1" d="M112.9,132.8c-2.7,0-4.9-2.2-4.9-4.9s2.2-4.9,4.9-4.9s4.9,2.2,4.9,4.9l0,0
		C117.7,130.6,115.6,132.8,112.9,132.8z M112.9,125c-1.6,0-2.9,1.3-2.9,2.9s1.3,2.9,2.9,2.9s2.9-1.3,2.9-2.9l0,0
		C115.7,126.3,114.4,125,112.9,125L112.9,125z"/>
	<path class="st1" d="M198.4,28.9v87.3H27.3V28.9c0-5,4.2-9,9.2-9c0,0,0,0,0,0h152.7C194.2,19.8,198.4,23.9,198.4,28.9
		C198.4,28.9,198.4,28.9,198.4,28.9z"/>
	<path class="st1" d="M198.4,117.2H27.3c-0.6,0-1-0.4-1-1V28.9c0.1-5.6,4.6-10.1,10.2-10c0,0,0,0,0,0h152.7
		c5.6-0.1,10.2,4.4,10.2,10c0,0,0,0,0,0v87.3C199.4,116.8,199,117.2,198.4,117.2z M28.3,115.2h169.1V28.9c-0.1-4.5-3.7-8.1-8.2-8
		c0,0,0,0,0,0H36.5c-4.5-0.1-8.2,3.5-8.2,8c0,0,0,0,0,0L28.3,115.2z"/>
	<rect x="51.5" y="1" class="st2" width="122.8" height="115.2"/>
	<path class="st1" d="M174.2,117.2H51.5c-0.6,0-1-0.4-1-1V1c0-0.6,0.4-1,1-1h122.7c0.6,0,1,0.4,1,1v115.2
		C175.2,116.8,174.8,117.2,174.2,117.2z M52.5,115.2h120.7V2H52.5V115.2z"/>
	<rect x="51.5" y="1" class="st0" width="122.8" height="8.8"/>
	<path class="st1" d="M174.2,10.8H51.5c-0.6,0-1-0.4-1-1V1c0-0.6,0.4-1,1-1h122.7c0.6,0,1,0.4,1,1v8.8
		C175.2,10.4,174.8,10.8,174.2,10.8z M52.5,8.8h120.7V2H52.5V8.8z"/>
	<path class="st1" d="M79.7,71.1H65v-6l13.7-20.9h7.8v20.9h4.4v6h-4.3v6.7h-6.8L79.7,71.1z M79.7,53.6h-0.1l-7.4,11.6h7.5L79.7,53.6
		z"/>
	<path class="st1" d="M149.6,71.1h-14.6v-6l13.7-20.9h7.8v20.9h4.3v6h-4.3v6.7h-6.8V71.1z M149.6,53.6L149.6,53.6L142,65.1h7.5V53.6
		z"/>
	<path class="st1" d="M124.9,57.6c0,0-4.8-2.3-12.8,0.6S102,66.1,102,66.1c2.3,6.3,9.3,9.6,15.7,7.3S127.3,64,124.9,57.6z"/>
	<path class="st1" d="M113.5,75.1c-5.5,0-10.5-3.5-12.4-8.7c-0.1-0.2-0.1-0.5,0-0.8c0.1-0.2,2.4-5.3,10.7-8.4s13.4-0.6,13.6-0.5
		c0.2,0.1,0.4,0.3,0.5,0.6c2.5,6.9-1,14.5-7.9,17C116.5,74.8,115,75.1,113.5,75.1L113.5,75.1z M103.1,66.1c2.3,5.6,8.6,8.3,14.2,6.2
		c5.7-2.1,8.7-8.3,6.8-14c-1.2-0.4-5.4-1.5-11.7,0.8S103.8,65,103.1,66.1L103.1,66.1z"/>
	
		<ellipse transform="matrix(0.9387 -0.3446 0.3446 0.9387 -14.5157 42.9846)" class="st0" cx="113.6" cy="62.3" rx="19.7" ry="8.4"/>
	<path class="st1" d="M103.9,73.7c-5,0-8.6-1.5-9.7-4.3c-1.8-5,5.3-12,16.2-16c4.6-1.8,9.4-2.6,14.3-2.6c4.5,0.2,7.4,1.8,8.4,4.3
		l0,0c0.9,2.5-0.4,5.6-3.6,8.6c-3.7,3.2-8,5.7-12.6,7.3C112.7,72.7,108.3,73.6,103.9,73.7z M123.5,52.9c-4.2,0.1-8.4,0.9-12.4,2.5
		c-10.5,3.9-16.2,10-15,13.4s9.6,4.4,20.1,0.5c4.4-1.5,8.4-3.9,11.9-6.9c2.6-2.4,3.7-4.8,3.1-6.5l0,0c-0.6-1.7-3-2.8-6.6-2.9
		C124.2,52.9,123.9,52.9,123.5,52.9L123.5,52.9z"/>
	<path class="st3" d="M123.8,54.5c0,0-2.2,4.9-10.1,7.8s-12.8,0.6-12.8,0.6c-2.3-6.3,0.9-13.3,7.3-15.7
		C114.4,44.9,121.4,48.1,123.8,54.5L123.8,54.5z"/>
	<path class="st1" d="M106,64.8c-1.9,0.1-3.8-0.3-5.5-1c-0.2-0.1-0.4-0.3-0.5-0.6c-2.5-6.8,1-14.4,7.8-17s14.4,1,17,7.8l0,0
		c0.1,0.2,0.1,0.5,0,0.8c-0.1,0.2-2.4,5.3-10.7,8.4C111.4,64.3,108.7,64.8,106,64.8z M101.6,62.2c1.2,0.4,5.4,1.5,11.7-0.8
		s8.7-5.9,9.4-7c-2.5-5.7-9.1-8.2-14.8-5.7C102.7,51,100.1,56.7,101.6,62.2L101.6,62.2z"/>
	<path class="st4" d="M132.2,25.2L132.2,25.2l-68.4-0.4c-0.6,0-1-0.4-1-1s0.4-1,1-1l68.4,0.4c0.6,0,1,0.4,1,1S132.8,25.2,132.2,25.2
		L132.2,25.2z"/>
	<circle class="st1" cx="55.9" cy="5.4" r="1.3"/>
	<circle class="st1" cx="59.9" cy="5.4" r="1.3"/>
	<circle class="st1" cx="63.8" cy="5.4" r="1.3"/>
	<path class="st4" d="M115.3,34.4L115.3,34.4l-51.4-0.3c-0.6,0-1-0.4-1-1s0.4-1,1-1l0,0l51.4,0.3c0.6,0,1,0.4,1,1
		S115.8,34.4,115.3,34.4L115.3,34.4z"/>
	<path class="st0" d="M74.7,162.5H151c2.8,0,5.1,2.3,5.1,5.1v0c0,2.8-2.3,5.1-5.1,5.1H74.7c-2.8,0-5.1-2.3-5.1-5.1v0
		C69.7,164.8,71.9,162.5,74.7,162.5z"/>
	<path class="st1" d="M151,173.6H74.7c-3.3,0.1-6.2-2.5-6.3-5.8c-0.1-3.3,2.5-6.2,5.8-6.3c0.2,0,0.3,0,0.5,0H151
		c3.3-0.1,6.2,2.5,6.3,5.8c0.1,3.3-2.5,6.2-5.8,6.3C151.3,173.6,151.1,173.6,151,173.6z M74.7,163.5c-2.2-0.1-4.2,1.6-4.3,3.9
		s1.6,4.2,3.9,4.3c0.1,0,0.3,0,0.4,0H151c2.2,0.1,4.2-1.6,4.3-3.9s-1.6-4.2-3.9-4.3c-0.1,0-0.3,0-0.4,0H74.7z"/>
	<path class="st5" d="M127.4,95.2h78.9c1.5,0,2.7,1.2,2.7,2.7v22.2c0,1.5-1.2,2.7-2.7,2.7h-78.9c-1.5,0-2.7-1.2-2.7-2.7V97.9
		C124.6,96.4,125.9,95.2,127.4,95.2z"/>
	<path class="st1" d="M206.3,123.8h-78.9c-2.1,0-3.7-1.7-3.7-3.7V97.9c0-2.1,1.7-3.7,3.7-3.7h78.9c2.1,0,3.7,1.7,3.7,3.7v22.2
		C210,122.1,208.3,123.8,206.3,123.8z M127.4,96.2c-0.9,0-1.7,0.8-1.7,1.7v22.2c0,0.9,0.8,1.7,1.7,1.7h78.9c0.9,0,1.7-0.8,1.7-1.7
		V97.9c0-0.9-0.8-1.7-1.7-1.7l0,0H127.4z"/>
	<path class="st1" d="M130.9,104.8h2.5l3.6,5.9l0,0v-5.9h1.9v8.5h-2.4l-3.7-6l0,0v6h-1.9L130.9,104.8z"/>
	<path class="st1" d="M140.2,109c0-0.6,0.1-1.3,0.3-1.9c0.2-0.5,0.6-1,1-1.4c0.4-0.4,0.9-0.7,1.4-0.9c1.2-0.4,2.5-0.4,3.7,0
		c0.5,0.2,1,0.5,1.4,0.9c0.4,0.4,0.8,0.9,1,1.4c0.5,1.2,0.5,2.5,0,3.7c-0.2,0.5-0.6,1-1,1.4c-0.4,0.4-0.9,0.7-1.4,0.9
		c-1.2,0.4-2.5,0.4-3.7,0c-0.5-0.2-1-0.5-1.4-0.9c-0.4-0.4-0.8-0.9-1-1.4C140.3,110.3,140.2,109.7,140.2,109z M142.2,109
		c0,0.4,0.1,0.7,0.2,1.1c0.2,0.7,0.7,1.2,1.4,1.4c0.3,0.1,0.7,0.2,1.1,0.2c0.4,0,0.7-0.1,1.1-0.2c0.3-0.1,0.6-0.3,0.8-0.6
		c0.2-0.3,0.4-0.5,0.5-0.9c0.1-0.3,0.2-0.7,0.2-1.1c0-0.4-0.1-0.7-0.2-1.1c-0.1-0.3-0.3-0.6-0.5-0.9c-0.2-0.2-0.5-0.4-0.8-0.6
		c-0.3-0.1-0.7-0.2-1.1-0.2c-0.4,0-0.7,0.1-1.1,0.2c-0.6,0.3-1.1,0.8-1.4,1.4C142.2,108.3,142.2,108.7,142.2,109z"/>
	<path class="st1" d="M152.3,106.4h-2.5v-1.6h6.7v1.6h-2.4v6.8h-1.9L152.3,106.4z"/>
	<path class="st1" d="M161.2,104.8h5.7v1.7h-3.8v1.7h3.5v1.7h-3.5v3.3h-1.9V104.8z"/>
	<path class="st1" d="M167.8,109c0-0.6,0.1-1.3,0.3-1.9c0.2-0.5,0.6-1,1-1.4c0.4-0.4,0.9-0.7,1.5-0.9c1.2-0.4,2.5-0.4,3.7,0
		c0.5,0.2,1,0.5,1.5,0.9c0.4,0.4,0.8,0.9,1,1.4c0.5,1.2,0.5,2.5,0,3.7c-0.2,0.5-0.6,1-1,1.4c-0.4,0.4-0.9,0.7-1.5,0.9
		c-1.2,0.4-2.5,0.4-3.7,0c-0.5-0.2-1-0.5-1.5-0.9c-0.4-0.4-0.8-0.9-1-1.4C167.9,110.3,167.8,109.7,167.8,109z M169.7,109
		c0,0.4,0.1,0.7,0.2,1.1c0.2,0.7,0.7,1.2,1.4,1.4c0.3,0.1,0.7,0.2,1.1,0.2c0.4,0,0.7-0.1,1.1-0.2c0.3-0.1,0.6-0.3,0.8-0.6
		c0.2-0.3,0.4-0.5,0.5-0.9c0.1-0.3,0.2-0.7,0.2-1.1c0-0.4-0.1-0.7-0.2-1.1c-0.1-0.3-0.3-0.6-0.5-0.9c-0.2-0.2-0.5-0.4-0.8-0.6
		c-0.3-0.1-0.7-0.2-1.1-0.2c-0.4,0-0.7,0.1-1.1,0.2c-0.6,0.3-1.1,0.8-1.4,1.4C169.8,108.3,169.7,108.7,169.7,109z"/>
	<path class="st1" d="M185.4,110c0,0.5-0.1,0.9-0.2,1.4c-0.1,0.4-0.4,0.8-0.7,1.1c-0.3,0.3-0.7,0.6-1.1,0.7c-1,0.3-2.1,0.3-3.1,0
		c-0.8-0.3-1.5-1-1.8-1.8c-0.2-0.4-0.2-0.9-0.2-1.4v-5.2h1.9v5.1c0,0.2,0,0.5,0.1,0.7c0.1,0.2,0.2,0.4,0.4,0.6
		c0.2,0.2,0.3,0.3,0.5,0.4c0.2,0.1,0.5,0.1,0.7,0.1c0.2,0,0.5,0,0.7-0.1c0.2-0.1,0.4-0.2,0.5-0.4c0.2-0.2,0.3-0.4,0.4-0.6
		c0.1-0.2,0.1-0.5,0.1-0.7v-5.1h1.9V110z"/>
	<path class="st1" d="M187.1,104.8h2.5l3.6,5.9l0,0v-5.9h1.9v8.5h-2.5l-3.7-6l0,0v6h-1.9L187.1,104.8z"/>
	<path class="st1" d="M196.9,104.8h2.8c0.7,0,1.3,0.1,1.9,0.2c0.6,0.1,1.1,0.4,1.6,0.7c0.5,0.4,0.8,0.8,1.1,1.3
		c0.3,0.6,0.4,1.3,0.4,2c0,0.6-0.1,1.3-0.4,1.8c-0.3,0.5-0.6,1-1,1.3c-0.5,0.4-1,0.6-1.5,0.8c-0.6,0.2-1.2,0.3-1.8,0.3h-3.1V104.8z
		 M198.7,111.6h1c0.4,0,0.8,0,1.2-0.1c0.4-0.1,0.7-0.2,1-0.4c0.3-0.2,0.5-0.5,0.6-0.8c0.2-0.4,0.2-0.8,0.2-1.2
		c0-0.4-0.1-0.7-0.2-1.1c-0.2-0.3-0.4-0.6-0.6-0.8c-0.3-0.2-0.6-0.4-0.9-0.4c-0.4-0.1-0.7-0.2-1.1-0.1h-1.1L198.7,111.6z"/>
	<path class="st5" d="M36.7,85.8h51.6c1.2,0,2.2,1,2.2,2.2v17.3c0,1.2-1,2.2-2.2,2.2H36.7c-1.2,0-2.2-1-2.2-2.2V88
		C34.5,86.8,35.5,85.8,36.7,85.8z"/>
	<path class="st1" d="M88.3,108.5H36.7c-1.8,0-3.2-1.4-3.2-3.2V88c0-1.8,1.4-3.2,3.2-3.2h51.6c1.8,0,3.2,1.5,3.2,3.2v17.3
		C91.5,107,90.1,108.5,88.3,108.5z M36.7,86.8c-0.7,0-1.2,0.6-1.2,1.2v17.3c0,0.7,0.6,1.2,1.2,1.2h51.6c0.7,0,1.2-0.6,1.2-1.2V88
		c0-0.7-0.5-1.2-1.2-1.2L36.7,86.8z"/>
	<path class="st1" d="M38.6,95.9c0-0.7,0.1-1.4,0.4-2c0.2-0.6,0.6-1.1,1.1-1.6c0.5-0.4,1-0.8,1.6-1c1.3-0.4,2.7-0.4,4,0
		c0.6,0.2,1.1,0.6,1.6,1c0.5,0.4,0.8,1,1.1,1.6c0.3,0.6,0.4,1.3,0.4,2c0,0.7-0.1,1.4-0.4,2c-0.5,1.2-1.4,2.1-2.7,2.5
		c-1.3,0.5-2.7,0.5-4,0c-0.6-0.2-1.1-0.6-1.6-1c-0.5-0.4-0.8-1-1.1-1.6C38.7,97.3,38.6,96.6,38.6,95.9z M40.7,95.9
		c0,0.4,0.1,0.8,0.2,1.2c0.1,0.4,0.3,0.7,0.6,0.9c0.3,0.3,0.6,0.5,0.9,0.6c0.8,0.3,1.6,0.3,2.4,0c0.3-0.1,0.7-0.4,0.9-0.6
		c0.3-0.3,0.5-0.6,0.6-0.9c0.1-0.4,0.2-0.8,0.2-1.2c0-0.4-0.1-0.8-0.2-1.2c-0.3-0.7-0.8-1.3-1.5-1.6c-0.8-0.3-1.6-0.3-2.4,0
		c-0.7,0.3-1.3,0.9-1.5,1.6C40.8,95.1,40.7,95.5,40.7,95.9z"/>
	<path class="st1" d="M50.9,95.9c0-0.7,0.1-1.4,0.4-2c0.2-0.6,0.6-1.1,1.1-1.6c0.5-0.4,1-0.8,1.6-1c1.3-0.4,2.7-0.4,4,0
		c0.6,0.2,1.1,0.6,1.6,1c0.5,0.4,0.8,1,1.1,1.6c0.3,0.6,0.4,1.3,0.4,2c0,0.7-0.1,1.4-0.4,2c-0.2,0.6-0.6,1.1-1.1,1.6
		c-0.5,0.4-1,0.8-1.6,1c-1.3,0.5-2.7,0.5-4,0c-1.2-0.4-2.2-1.3-2.7-2.5C51,97.3,50.9,96.6,50.9,95.9z M53.1,95.9
		c0,0.4,0.1,0.8,0.2,1.2c0.1,0.4,0.3,0.7,0.6,0.9c0.3,0.3,0.6,0.5,0.9,0.6c0.8,0.3,1.6,0.3,2.4,0c0.3-0.1,0.7-0.4,0.9-0.6
		c0.3-0.3,0.5-0.6,0.6-0.9c0.1-0.4,0.2-0.8,0.2-1.2c0-0.4-0.1-0.8-0.2-1.2c-0.3-0.7-0.8-1.3-1.5-1.6c-0.8-0.3-1.6-0.3-2.4,0
		c-0.7,0.3-1.3,0.9-1.5,1.6C53.1,95.1,53.1,95.5,53.1,95.9z"/>
	<path class="st1" d="M63.8,91.2h3.5c0.5,0,0.9,0,1.4,0.1c0.4,0.1,0.8,0.2,1.1,0.4c0.3,0.2,0.6,0.5,0.8,0.9c0.2,0.4,0.3,0.9,0.3,1.4
		c0,0.5-0.1,0.9-0.3,1.4c-0.2,0.4-0.4,0.7-0.7,0.9c-0.3,0.2-0.7,0.4-1.1,0.5c-0.5,0.1-0.9,0.1-1.4,0.1h-1.5v3.6h-2.1V91.2z
		 M65.8,95.2h1.4c0.2,0,0.4,0,0.5,0c0.2,0,0.3-0.1,0.5-0.2c0.1-0.1,0.2-0.2,0.3-0.3c0.1-0.2,0.1-0.4,0.1-0.6c0-0.2,0-0.4-0.2-0.6
		c-0.1-0.1-0.3-0.3-0.4-0.3c-0.2-0.1-0.4-0.1-0.6-0.2h-0.6h-1L65.8,95.2z"/>
	<path class="st1" d="M78,93.5c-0.2-0.2-0.4-0.4-0.7-0.5c-0.4-0.2-0.9-0.2-1.3-0.1c-0.2,0-0.3,0.1-0.4,0.2c-0.1,0.1-0.3,0.2-0.3,0.3
		c-0.1,0.1-0.1,0.3-0.1,0.4c0,0.3,0.1,0.5,0.3,0.6c0.2,0.2,0.5,0.3,0.8,0.4l1,0.3c0.4,0.1,0.7,0.3,1,0.4c0.7,0.4,1.2,1.2,1.1,2.1
		c0,0.5-0.1,0.9-0.3,1.4c-0.2,0.4-0.4,0.7-0.8,1c-0.3,0.3-0.7,0.4-1.1,0.6c-0.5,0.1-0.9,0.2-1.4,0.2c-0.6,0-1.1-0.1-1.7-0.3
		c-0.5-0.2-1-0.5-1.5-0.9l1.5-1.6c0.2,0.3,0.5,0.5,0.8,0.6c0.3,0.2,0.7,0.2,1,0.2c0.2,0,0.3,0,0.5-0.1c0.2,0,0.3-0.1,0.5-0.2
		c0.1-0.1,0.2-0.2,0.3-0.3c0.2-0.4,0.1-0.8-0.2-1.1c-0.2-0.2-0.5-0.3-0.8-0.4l-1-0.3c-0.4-0.1-0.7-0.3-1.1-0.5
		c-0.3-0.2-0.6-0.4-0.8-0.8C73.1,95,73,94.5,73,94.1c0-0.5,0.1-0.9,0.3-1.3c0.2-0.4,0.5-0.7,0.8-1c0.3-0.3,0.7-0.5,1.1-0.6
		c0.4-0.1,0.9-0.2,1.3-0.2c0.5,0,1,0.1,1.5,0.2c0.5,0.1,0.9,0.4,1.3,0.8L78,93.5z"/>
	<path class="st1" d="M83.1,99.5c0-0.2,0-0.3,0.1-0.5c0.1-0.3,0.4-0.5,0.6-0.6c0.2-0.1,0.3-0.1,0.5-0.1c0.2,0,0.3,0,0.5,0.1
		c0.3,0.1,0.5,0.4,0.6,0.6c0.1,0.1,0.1,0.3,0.1,0.5c0,0.2,0,0.3-0.1,0.5c-0.1,0.3-0.4,0.5-0.6,0.6c-0.1,0.1-0.3,0.1-0.5,0.1
		c-0.2,0-0.3,0-0.5-0.1c-0.3-0.1-0.5-0.4-0.6-0.6C83.1,99.8,83.1,99.6,83.1,99.5z M85.3,97.5h-2v-6.3h2V97.5z"/>
	<path class="st2" d="M175.9,34.1h-30.6c-1.7,0-3-1.3-3-3c0-0.6,0.2-1.3,0.5-1.8l15.3-22.2c0.9-1.4,2.8-1.8,4.2-0.8
		c0.3,0.2,0.6,0.5,0.8,0.8l15.3,22.2c1,1.4,0.6,3.2-0.7,4.2C177.1,34,176.5,34.2,175.9,34.1z"/>
	<path class="st1" d="M175.9,35.1h-30.6c-2.2,0-4-1.8-4-4c0-0.8,0.2-1.7,0.7-2.3l15.3-22.2c1.2-1.8,3.7-2.3,5.6-1.1
		c0.4,0.3,0.8,0.6,1.1,1.1l15.3,22.2c1.3,1.8,0.8,4.3-1,5.6C177.5,34.9,176.7,35.1,175.9,35.1L175.9,35.1z M160.6,6.9
		c-0.7,0-1.3,0.3-1.7,0.9L143.6,30c-0.6,0.9-0.4,2.1,0.5,2.8c0.4,0.2,0.8,0.4,1.2,0.4h30.6c1.1,0,2-0.9,2-2c0-0.4-0.1-0.8-0.4-1.2
		L162.2,7.7C161.8,7.2,161.2,6.9,160.6,6.9L160.6,6.9z"/>
	<path class="st1" d="M158.6,26.8c0-0.3,0-0.5,0.1-0.8c0.2-0.5,0.6-0.9,1.1-1.1c0.7-0.3,1.6-0.2,2.2,0.4c0.2,0.2,0.3,0.4,0.4,0.6
		c0.2,0.5,0.2,1.1,0,1.6c-0.1,0.2-0.2,0.5-0.4,0.6c-0.2,0.2-0.4,0.3-0.6,0.4c-0.5,0.2-1.1,0.2-1.6,0c-0.5-0.2-0.9-0.6-1.1-1.1
		C158.6,27.3,158.5,27.1,158.6,26.8z M162.2,23.6h-3.2V13.4h3.2V23.6z"/>
</g>
</svg>
